<svg version="1.1" id="Layer_1" xmlns="http://www.w3.org/2000/svg" xmlns:xlink="http://www.w3.org/1999/xlink" x="0px" y="0px" viewBox="0 0 342 48" style="enable-background:new 0 0 342 48;" xml:space="preserve">
 <style type="text/css">
  .st0{fill:#FFFFFF;}
	.st1{fill:#B5C428;}
	.st2{fill:#7A9A01;}
 </style>
 <g>
  <path class="st0" d="M71.9,47.4h-5.4v-2.9c-1.7,2.2-4.2,3.6-7.7,3.6c-6.9,0-12.3-5.4-12.3-12.9c0-7.5,5.4-12.9,12.3-12.9
		c3.5,0,6,1.4,7.7,3.6v-3h5.4V47.4z M52.1,35.1c0,4.3,2.8,7.9,7.4,7.9c4.4,0,7.4-3.4,7.4-7.9c0-4.5-3-7.9-7.4-7.9
		C54.9,27.2,52.1,30.8,52.1,35.1">
  </path>
  <path class="st0" d="M94,27.7h-9.4v10.7c0,3.3,1.7,4.6,3.9,4.6c1.7,0,3.5-0.7,4.9-1.7l2.1,4.3c-2,1.3-4.5,2.4-7.5,2.4
		c-5.6,0-8.8-3-8.8-9.5V27.7h-4.9v-4.9h4.9v-7.4h5.4v7.4H94V27.7z">
  </path>
  <path class="st0" d="M103.1,25.7c2-2.8,5-3.6,7.5-3.6c5.8,0,10,4,10,9.8v15.4h-5.4V33.7c0-4.1-2.1-6.4-5.7-6.4
		c-3.5,0-6.4,2.3-6.4,6.5v13.6h-5.4V10.4h5.4V25.7z">
  </path>
  <path class="st0" d="M148,35c0,0.7-0.1,1.4-0.1,2h-18.2c0.7,4.4,3.8,6.3,7.3,6.3c2.5,0,5.1-1,7.1-2.6l2.7,3.8
		c-3,2.6-6.4,3.5-10.1,3.5c-7.4,0-12.6-5.1-12.6-12.9c0-7.7,5-12.9,12.2-12.9C143.3,22.1,148,27.4,148,35 M129.8,33h12.7
		c-0.6-3.8-2.8-6.1-6.2-6.1C132.5,26.9,130.3,29.4,129.8,33">
  </path>
  <path class="st0" d="M174.7,31.9v15.4h-5.4V33.7c0-4.1-2.1-6.4-5.7-6.4c-3.5,0-6.4,2.3-6.4,6.5v13.6h-5.4V22.8h5.3v3
		c2-2.9,5-3.6,7.5-3.6C170.5,22.1,174.7,26.2,174.7,31.9">
  </path>
  <path class="st0" d="M203.5,47.4h-5.4v-2.9c-1.7,2.2-4.2,3.6-7.7,3.6c-6.9,0-12.3-5.4-12.3-12.9c0-7.5,5.4-12.9,12.3-12.9
		c3.5,0,6,1.4,7.7,3.6v-3h5.4V47.4z M183.7,35.1c0,4.3,2.8,7.9,7.4,7.9c4.4,0,7.4-3.4,7.4-7.9c0-4.5-3-7.9-7.4-7.9
		C186.5,27.2,183.7,30.8,183.7,35.1">
  </path>
  <path class="st0" d="M212,27.4c1.9-3.2,5.3-4.6,8.6-4.6c6.1,0,10.2,3.7,10.2,9.7v14.8h-2.9V33.5c0-4.9-2.8-7.8-7.7-7.8
		c-4.5,0-8.1,3.3-8.1,8v13.7h-2.9V10.4h2.9V27.4z">
  </path>
  <path class="st0" d="M258.1,35.2c0,0.4,0,0.8-0.1,1.2h-20.2c0.4,5.6,4.4,8.8,9.3,8.8c3.4,0,6-1.3,8.2-3.4l1.6,2
		c-3.1,3.1-6.4,4-9.9,4c-7.1,0-12.1-5.1-12.1-12.4c0-7.3,5.2-12.5,12-12.5C253.2,22.8,258,27.9,258.1,35.2 M237.9,33.8h17.3
		c-0.4-5-3.8-8.4-8.4-8.4C241.8,25.4,238.4,28.9,237.9,33.8">
  </path>
  <path class="st0" d="M285.2,47.4h-2.9v-4.6c-1.9,3-5.2,5-9.6,5c-6.8,0-12.1-5.3-12.1-12.4c0-7.2,5.3-12.5,12.1-12.5
		c4.4,0,7.6,2,9.6,5v-4.6h2.9V47.4z M263.7,35.3c0,5.4,3.9,9.7,9.4,9.7c5.5,0,9.4-4.2,9.4-9.7c0-5.5-3.9-9.7-9.4-9.7
		C267.6,25.6,263.7,29.8,263.7,35.3">
  </path>
  <rect x="291.2" y="10.4" class="st0" width="2.9" height="36.9">
  </rect>
  <path class="st0" d="M316.6,25.9h-11.1V39c0,4.1,2.2,5.9,5.4,5.9c2.1,0,4-0.7,5.4-1.8l1.4,2.2c-1.7,1.4-4.1,2.4-7,2.4
		c-5,0-8.1-2.8-8.1-8.6V25.9H297v-2.7h5.5v-7.9h2.9v7.9h11.1V25.9z">
  </path>
  <path class="st0" d="M323.3,27.4c1.9-3.2,5.3-4.6,8.6-4.6c6.1,0,10.2,3.7,10.2,9.7v14.8h-2.9V33.5c0-4.9-2.8-7.8-7.7-7.8
		c-4.5,0-8.1,3.3-8.1,8v13.7h-2.9V10.4h2.9V27.4z">
  </path>
  <path class="st1" d="M17.8,22.8c0,0-4.7-5.7-4.8-12C12.9,4.5,17.4,0,17.4,0s4.7,5.7,4.8,12C22.3,18.3,17.8,22.8,17.8,22.8">
  </path>
  <path class="st2" d="M43,15.6c0,0,0.5,12.7-5.8,21.4c-6.3,8.7-17.1,10.1-17.1,10.1s-0.5-12.7,5.8-21.4C32.2,17,43,15.6,43,15.6
		 M25.4,14.1c0,1.7,1.3,3,3,3s3-1.3,3-3c0-1.7-1.3-3-3-3S25.4,12.4,25.4,14.1">
  </path>
  <path class="st1" d="M17.6,35.8L17.6,35.8c0-0.1,0-0.1,0-0.1c0-2.5-0.4-10.1-4.4-15.6C8.3,13.5,0,12.4,0,12.4s-0.4,9.7,4.4,16.4
		c3.5,4.7,8.6,6.7,11.3,7.4v10.5c0,0.5,0.4,0.9,0.9,0.9c0.5,0,0.9-0.4,0.9-0.9V36.1C17.6,36,17.6,35.9,17.6,35.8">
  </path>
 </g>
</svg>